<svg width="32" height="32" viewBox="0 0 32 32" fill="none" xmlns="http://www.w3.org/2000/svg">
<path d="M16 0.999992C18.9667 0.999992 21.8668 1.87973 24.3335 3.52795C26.8003 5.17617 28.7229 7.51885 29.8582 10.2597C30.9935 13.0006 31.2906 16.0166 30.7118 18.9263C30.133 21.8361 28.7044 24.5088 26.6066 26.6066C24.5088 28.7044 21.8361 30.133 18.9263 30.7118C16.0166 31.2906 13.0006 30.9935 10.2597 29.8582C7.51885 28.7229 5.17617 26.8003 3.52795 24.3335C1.87973 21.8668 0.999992 18.9667 0.999992 16C0.999992 12.0217 2.58034 8.20644 5.39339 5.39339C8.20644 2.58034 12.0217 0.999992 16 0.999992ZM16 29C18.5712 29 21.0846 28.2376 23.2224 26.8091C25.3602 25.3806 27.0265 23.3503 28.0104 20.9749C28.9944 18.5994 29.2518 15.9856 28.7502 13.4638C28.2486 10.9421 27.0105 8.62569 25.1924 6.8076C23.3743 4.98952 21.0579 3.75139 18.5362 3.24978C16.0144 2.74818 13.4005 3.00562 11.0251 3.98956C8.64967 4.9735 6.61935 6.63974 5.19089 8.77758C3.76243 10.9154 2.99999 13.4288 2.99999 16C2.99999 19.4478 4.36963 22.7544 6.8076 25.1924C9.24558 27.6304 12.5522 29 16 29Z" fill="#B0B5BA"/>
<path d="M16 8C16.3956 8 16.7822 8.1173 17.1111 8.33706C17.44 8.55682 17.6964 8.86918 17.8478 9.23463C17.9991 9.60008 18.0387 10.0022 17.9616 10.3902C17.8844 10.7781 17.6939 11.1345 17.4142 11.4142C17.1345 11.6939 16.7781 11.8844 16.3902 11.9616C16.0022 12.0387 15.6001 11.9991 15.2346 11.8478C14.8692 11.6964 14.5568 11.44 14.3371 11.1111C14.1173 10.7822 14 10.3956 14 10C14 9.46957 14.2107 8.96086 14.5858 8.58579C14.9609 8.21071 15.4696 8 16 8Z" fill="#B0B5BA"/>
<path d="M16 14C16.2652 14 16.5196 14.1054 16.7071 14.2929C16.8946 14.4804 17 14.7348 17 15V24C17 24.2652 16.8946 24.5196 16.7071 24.7071C16.5196 24.8946 16.2652 25 16 25C15.7348 25 15.4804 24.8946 15.2929 24.7071C15.1054 24.5196 15 24.2652 15 24L15 15C15 14.7348 15.1054 14.4804 15.2929 14.2929C15.4804 14.1054 15.7348 14 16 14Z" fill="#B0B5BA"/>
</svg>
